<svg xmlns="http://www.w3.org/2000/svg" viewBox="0 0 128 128" width="128" height="128" role="img" aria-label="xmDriver — μ — IMU: 3-axis frame with gyro ring (host hardware drivers)">
  <title>xmDriver — μ — IMU: 3-axis frame with gyro ring (host hardware drivers)</title>
  <rect x="6" y="6" width="116" height="116" rx="30" fill="#161B26" stroke="#F2A23A" stroke-opacity="0.4" stroke-width="2"/>
  <path d="M55.416015625 96.88671875H39.513671875V35.43359375H32.685546875V29.998046875H55.416015625V56.771484375Q55.416015625 66.654296875 56.943359375 69.125Q58.470703125 71.595703125 62.423828125 71.595703125Q67.185546875 71.595703125 69.4091796875 68.0244140625Q71.6328125 64.453125 71.6328125 56.771484375V35.43359375H65.748046875V29.998046875H87.53515625V72.314453125H94.36328125V77.75H71.6328125V72.134765625Q69.162109375 75.86328125 66.7138671875 77.4580078125Q64.265625 79.052734375 60.94140625 79.052734375Q59.548828125 79.052734375 58.2236328125 78.603515625Q56.8984375 78.154296875 55.416015625 77.2109375Z" fill="#F2A23A" opacity="0.100"/>
  <g stroke="#F2A23A" fill="none" stroke-linecap="round" stroke-linejoin="round">
  <path d="M62 67 L62 40 M62 40 L65.9 45.2 M62 40 L58.1 45.2" stroke="#F2A23A" stroke-width="2.52" fill="none" stroke-linecap="round" stroke-linejoin="round"/>
  <path d="M62 67 L85 80 M85 80 L78.6 80.8 M85 80 L82.4 74.1" stroke="#F2A23A" stroke-width="2.52" fill="none" stroke-linecap="round" stroke-linejoin="round"/>
  <path d="M62 67 L39 80 M39 80 L41.6 74.1 M39 80 L45.4 80.8" stroke="#F2A23A" stroke-width="2.52" fill="none" stroke-linecap="round" stroke-linejoin="round"/>
  <ellipse cx="62" cy="56" rx="10" ry="4" stroke-width="2.17"/>
  <path d="M72 56 l-3.5 -2 M72 56 l-2.5 4" stroke-width="2.45"/></g>
  <path d="M62 62 L68 67 L62 72 L56 67 Z" fill="#F2A23A"/>
</svg>
